<svg xmlns="http://www.w3.org/2000/svg" xmlns:xlink="http://www.w3.org/1999/xlink" width="1080" zoomAndPan="magnify" viewBox="0 0 810 809.999993" height="1080" preserveAspectRatio="xMidYMid meet" version="1.0"><defs><clipPath id="bfb45b79b2"><path d="M 209 216.882812 L 653 216.882812 L 653 679 L 209 679 Z M 209 216.882812 " clip-rule="nonzero"/></clipPath></defs><g clip-path="url(#bfb45b79b2)"><path fill="#737373" d="M 652.289062 610.847656 C 647.085938 575.046875 614.65625 540.523438 593.199219 517.683594 C 550.96875 472.734375 527.789062 430.957031 520.246094 386.195312 C 518.613281 376.527344 517.929688 365.695312 517.207031 354.230469 C 515.402344 325.703125 513.355469 293.363281 495.011719 272.503906 C 491.007812 267.957031 480.605469 257.714844 470.546875 260.964844 C 463.125 263.355469 459.742188 272.984375 457.261719 280.019531 C 456.757812 281.449219 456.28125 282.800781 455.820312 283.964844 C 451.902344 293.8125 447.304688 303.347656 442.261719 312.640625 C 439.199219 287.710938 432.515625 261.570312 414.152344 240.683594 C 400.660156 225.339844 384.261719 216.894531 367.976562 216.894531 C 363.027344 216.894531 358.140625 217.660156 353.464844 219.167969 C 329.898438 226.765625 322.132812 248.832031 318.382812 259.472656 C 318.015625 260.503906 317.644531 261.574219 317.4375 262.097656 C 306.558594 289.449219 289.484375 314.484375 271.414062 340.988281 C 258.457031 359.988281 245.0625 379.625 233.492188 400.941406 C 219.136719 427.371094 201.8125 466.730469 213.429688 507.699219 C 209.070312 522.992188 207.757812 539.222656 213.179688 555.082031 C 224.980469 589.585938 260.890625 606.867188 293.628906 620.355469 C 356.042969 646.074219 413.90625 664.613281 465.605469 675.457031 C 472.296875 676.863281 480.34375 678.25 487.851562 678.25 C 495.402344 678.25 502.40625 676.835938 506.90625 672.609375 C 510.417969 669.3125 512.058594 664.601562 511.824219 658.582031 C 515.140625 658.890625 518.582031 659.089844 522.054688 659.089844 C 546.800781 659.089844 560.742188 648.988281 568.074219 640.511719 C 571.429688 636.636719 574.933594 631.359375 577.332031 624.539062 C 587.222656 627.039062 596.914062 629.292969 606.394531 631.277344 C 613.085938 632.6875 621.136719 634.074219 628.636719 634.074219 C 636.1875 634.074219 643.1875 632.660156 647.691406 628.433594 C 651.867188 624.5 653.410156 618.59375 652.289062 610.847656 Z M 235.667969 402.121094 C 247.179688 380.921875 260.542969 361.332031 273.460938 342.390625 C 291.617188 315.765625 308.761719 290.625 319.742188 263.019531 C 319.964844 262.453125 320.351562 261.355469 320.738281 260.261719 C 324.335938 250.035156 331.828125 228.757812 354.21875 221.539062 C 358.652344 220.113281 363.277344 219.382812 367.964844 219.382812 C 383.519531 219.382812 399.253906 227.53125 412.265625 242.328125 C 431.027344 263.667969 437.34375 290.820312 440.175781 316.402344 C 429.875 334.847656 417.9375 352.355469 406.25 369.492188 C 396.503906 383.785156 386.5 398.460938 377.460938 413.636719 C 377.058594 408.726562 376.726562 403.640625 376.398438 398.417969 C 374.59375 369.890625 372.546875 337.554688 354.199219 316.695312 C 350.199219 312.144531 339.804688 301.90625 329.730469 305.152344 C 322.3125 307.542969 318.925781 317.175781 316.449219 324.207031 C 315.945312 325.640625 315.464844 326.992188 315.003906 328.15625 C 302.730469 359.015625 283.773438 386.808594 265.449219 413.683594 C 252.972656 431.976562 240.078125 450.894531 229.328125 470.679688 C 224.011719 480.46875 218.601562 491.503906 214.792969 503.175781 C 205.546875 464.4375 221.988281 427.328125 235.667969 402.121094 Z M 442.316406 343.019531 C 442.988281 353.632812 443.625 363.660156 444.980469 371.703125 C 451.523438 410.527344 471.503906 446 509.769531 486.734375 C 533.953125 512.480469 570.496094 551.378906 577.140625 597.074219 C 578.546875 606.753906 577.6875 614.863281 575.695312 621.539062 C 544.957031 613.65625 512.320312 603.3125 478.078125 590.601562 C 469.289062 579.832031 460.140625 570.089844 452.414062 561.867188 C 410.1875 516.917969 387.003906 475.136719 379.460938 430.375 C 378.789062 426.398438 378.285156 422.222656 377.867188 417.890625 C 387.316406 401.71875 397.964844 386.085938 408.332031 370.894531 C 419.40625 354.652344 430.703125 338.082031 440.644531 320.679688 C 441.382812 328.378906 441.863281 335.890625 442.316406 343.019531 Z M 435.363281 573.863281 C 403.132812 560.585938 367.789062 543.605469 356.324219 510.089844 C 346.476562 481.308594 359.710938 450.929688 372.332031 427.679688 C 373.449219 425.632812 374.585938 423.597656 375.738281 421.570312 C 376.09375 424.730469 376.496094 427.816406 376.996094 430.792969 C 381.152344 455.476562 389.84375 478.875 403.554688 502.328125 C 415.195312 522.242188 430.585938 542.273438 450.589844 563.566406 C 457.480469 570.898438 465.511719 579.445312 473.390625 588.84375 C 460.917969 584.164062 448.242188 579.171875 435.363281 573.863281 Z M 476.566406 592.699219 C 491.804688 611.453125 505.816406 633.253906 509.035156 655.394531 C 509.054688 655.523438 509.066406 655.648438 509.082031 655.78125 C 503.027344 655.0625 497.53125 654.011719 493.308594 653.128906 C 439.710938 641.886719 379.972656 622.769531 315.757812 596.308594 C 297.996094 588.996094 279.242188 580.589844 262.363281 568.777344 C 240.066406 553.171875 224.925781 534.054688 217.371094 511.957031 C 216.882812 510.542969 216.441406 509.132812 216.03125 507.71875 C 219.789062 494.820312 225.730469 482.582031 231.554688 471.863281 C 242.242188 452.1875 255.101562 433.328125 267.546875 415.082031 C 285.945312 388.097656 304.976562 360.191406 317.355469 329.074219 C 317.835938 327.867188 318.320312 326.492188 318.839844 325.035156 C 321.265625 318.132812 324.292969 309.542969 330.535156 307.527344 C 331.59375 307.183594 332.667969 307.035156 333.746094 307.035156 C 341.734375 307.035156 349.835938 315.46875 352.363281 318.34375 C 370.140625 338.570312 372.164062 370.453125 373.945312 398.585938 C 374.355469 405.074219 374.761719 411.339844 375.320312 417.34375 C 373.558594 420.375 371.828125 423.429688 370.160156 426.503906 C 357.292969 450.203125 343.824219 481.207031 353.984375 510.910156 C 365.785156 545.414062 401.695312 562.695312 434.429688 576.183594 C 448.710938 582.054688 462.765625 587.5625 476.566406 592.699219 Z M 505.199219 670.789062 C 496.128906 679.300781 473.539062 674.566406 466.113281 673.007812 C 414.5625 662.195312 356.851562 643.703125 294.574219 618.046875 C 262.34375 604.769531 227 587.785156 215.53125 554.273438 C 210.753906 540.292969 211.425781 525.933594 214.816406 512.195312 C 214.878906 512.382812 214.941406 512.574219 215.003906 512.761719 C 222.734375 535.367188 238.191406 554.902344 260.921875 570.8125 C 278.003906 582.765625 296.910156 591.234375 314.796875 598.605469 C 379.160156 625.121094 439.042969 644.289062 492.792969 655.5625 C 497.195312 656.484375 502.957031 657.589844 509.320312 658.3125 C 509.601562 663.753906 508.226562 667.949219 505.199219 670.789062 Z M 566.195312 638.867188 C 559.199219 646.953125 545.867188 656.589844 522.0625 656.589844 C 518.519531 656.589844 515.011719 656.378906 511.628906 656.046875 C 511.59375 655.710938 511.554688 655.375 511.5 655.03125 C 508.386719 633.613281 495.527344 612.648438 481.105469 594.371094 C 513.953125 606.4375 545.304688 616.308594 574.910156 623.902344 C 572.632812 630.289062 569.339844 635.230469 566.195312 638.867188 Z M 645.988281 626.605469 C 636.921875 635.125 614.332031 630.390625 606.90625 628.828125 C 597.507812 626.851562 587.902344 624.625 578.101562 622.148438 C 580.171875 615.1875 581.054688 606.753906 579.597656 596.707031 C 572.84375 550.238281 535.976562 510.992188 511.578125 485.023438 C 473.679688 444.675781 453.894531 409.597656 447.433594 371.285156 C 446.101562 363.375 445.46875 353.40625 444.800781 342.851562 C 444.277344 334.617188 443.722656 325.863281 442.757812 316.914062 C 448.503906 306.574219 453.738281 295.929688 458.132812 284.878906 C 458.613281 283.671875 459.097656 282.296875 459.609375 280.839844 C 462.039062 273.9375 465.0625 265.347656 471.304688 263.332031 C 472.363281 262.988281 473.441406 262.839844 474.519531 262.839844 C 482.503906 262.839844 490.609375 271.273438 493.140625 274.148438 C 510.921875 294.371094 512.941406 326.257812 514.722656 354.390625 C 515.453125 365.917969 516.144531 376.8125 517.792969 386.609375 C 521.949219 411.292969 530.640625 434.691406 544.351562 458.144531 C 555.992188 478.058594 571.378906 498.09375 591.386719 519.382812 C 612.632812 542 644.738281 576.179688 649.832031 611.203125 C 650.828125 618.09375 649.53125 623.273438 645.988281 626.605469 Z M 645.988281 626.605469 " fill-opacity="1" fill-rule="nonzero"/></g></svg>